<svg xmlns="http://www.w3.org/2000/svg" viewBox="0 0 1600 700" role="img" aria-labelledby="title desc">
  <title id="title">Preparate para el encuentro</title>
  <desc id="desc">Mesa de cartas futurista con sobres, dados y energía violeta.</desc>
  <defs>
    <radialGradient id="bg" cx="50%" cy="58%" r="78%"><stop offset="0" stop-color="#312061"/><stop offset=".48" stop-color="#0e0b18"/><stop offset="1" stop-color="#030208"/></radialGradient>
    <linearGradient id="line" x1="0" y1="0" x2="1" y2="0"><stop offset="0" stop-color="#8b5cf6" stop-opacity="0"/><stop offset=".5" stop-color="#ddd6fe"/><stop offset="1" stop-color="#8b5cf6" stop-opacity="0"/></linearGradient>
    <filter id="glow"><feGaussianBlur stdDeviation="7" result="b"/><feMerge><feMergeNode in="b"/><feMergeNode in="SourceGraphic"/></feMerge></filter>
  </defs>
  <rect width="1600" height="700" fill="url(#bg)"/>
  <path d="M255 594 492 280h616l237 314Z" fill="#090713" stroke="#8b5cf6" stroke-opacity=".55" stroke-width="4"/>
  <path d="M390 555h820" stroke="url(#line)" stroke-width="3" filter="url(#glow)"/>
  <path d="M486 430h628" stroke="#a78bfa" stroke-opacity=".24" stroke-width="2"/>
  <g transform="translate(520 300) rotate(-9)"><rect width="118" height="170" rx="17" fill="#f8f7ff" opacity=".82"/><rect x="18" y="20" width="82" height="130" rx="10" fill="#090713"/><circle cx="59" cy="86" r="33" fill="#7c3aed" opacity=".72"/></g>
  <g transform="translate(710 315) rotate(5)"><rect width="118" height="170" rx="17" fill="#f8f7ff" opacity=".76"/><rect x="18" y="20" width="82" height="130" rx="10" fill="#090713"/><path d="M28 120 96 47" stroke="#a78bfa" stroke-width="9" opacity=".76"/></g>
  <g transform="translate(900 300) rotate(10)"><rect width="118" height="170" rx="17" fill="#f8f7ff" opacity=".82"/><rect x="18" y="20" width="82" height="130" rx="10" fill="#090713"/><ellipse cx="59" cy="86" rx="43" ry="17" fill="none" stroke="#c4b5fd" stroke-width="8" transform="rotate(-18 59 86)"/></g>
  <circle cx="400" cy="305" r="20" fill="#ddd6fe" opacity=".85"/><circle cx="1215" cy="322" r="14" fill="#8b5cf6" opacity=".9"/><circle cx="1185" cy="360" r="9" fill="#fff" opacity=".8"/>
  <text x="800" y="156" text-anchor="middle" font-family="Montserrat, Inter, Arial, sans-serif" font-size="30" font-weight="800" letter-spacing="8" fill="#c4b5fd">PREPARATE PARA EL ENCUENTRO</text>
</svg>
